<svg xmlns="http://www.w3.org/2000/svg" xmlns:xlink="http://www.w3.org/1999/xlink" version="1.1" width="30"
     height="30" viewBox="0 0 256 256" xml:space="preserve">
    <g style="stroke: none; stroke-width: 0; stroke-dasharray: none; stroke-linecap: butt; stroke-linejoin: miter; stroke-miterlimit: 10;  nonzero; opacity: 1;"
       transform="translate(1.4065934065934016 1.4065934065934016) scale(2.81 2.81)">
        <path fill="#fff" d="M 24.158 57.091 h 54.898 c 2.293 0 4.313 -1.509 4.964 -3.709 l 5.841 -19.759 c 0.633 -2.141 -0.972 -4.289 -3.204 -4.289 H 16.95 L 24.158 57.091 z"
              style="stroke: none; stroke-width: 1; stroke-dasharray: none; stroke-linecap: butt; stroke-linejoin: miter; stroke-miterlimit: 10;  nonzero; opacity: 1;"
              transform=" matrix(1 0 0 1 0 0) " stroke-linecap="round"/>
        <path fill="#fff" d="M 79.585 69.894 H 27.091 c -0.687 0 -1.287 -0.464 -1.46 -1.129 L 14.404 25.529 c -0.421 -1.62 -1.883 -2.751 -3.557 -2.751 H 1.508 C 0.675 22.778 0 22.103 0 21.27 s 0.675 -1.508 1.508 -1.508 h 9.339 c 3.048 0 5.711 2.06 6.476 5.01 l 10.935 42.106 h 51.327 c 0.833 0 1.508 0.676 1.508 1.508 C 81.093 69.219 80.417 69.894 79.585 69.894 z"
              style="stroke: none; stroke-width: 1; stroke-dasharray: none; stroke-linecap: butt; stroke-linejoin: miter; stroke-miterlimit: 10; nonzero; opacity: 1;"
              transform=" matrix(1 0 0 1 0 0) " stroke-linecap="round"/>
        <circle fill="#fff" cx="36.176" cy="80.436" r="6.536"
                style="stroke: none; stroke-width: 1; stroke-dasharray: none; stroke-linecap: butt; stroke-linejoin: miter; stroke-miterlimit: 10;   nonzero; opacity: 1;"
                transform="  matrix(1 0 0 1 0 0) "/>
        <circle fill="#fff" cx="69.15599999999999" cy="80.436" r="6.536"
                style="stroke: none; stroke-width: 1; stroke-dasharray: none; stroke-linecap: butt; stroke-linejoin: miter; stroke-miterlimit: 10; nonzero; opacity: 1;"
                transform="  matrix(1 0 0 1 0 0) "/>
    </g>
</svg>
