<svg xmlns="http://www.w3.org/2000/svg"
     viewBox="0 0 24 30" version="1.1" xml:space="preserve" style="" x="0px" y="0px" fill-rule="evenodd"
     clip-rule="evenodd" stroke-linejoin="round" stroke-miterlimit="2"><g><g><path d="M11,2.25c0,-0.552 -0.448,-1 -1,-1l-8,0c-0.552,0 -1,0.448 -1,1l0,8c0,0.552 0.448,1 1,1l8,-0c0.552,-0 1,-0.448 1,-1l0,-8Z"/><path
        d="M11,13.75c0,-0.552 -0.448,-1 -1,-1l-8,0c-0.552,0 -1,0.448 -1,1l0,8c0,0.552 0.448,1 1,1l8,-0c0.552,-0 1,-0.448 1,-1l0,-8Z"/><path
        d="M23,13.75c0,-0.552 -0.448,-1 -1,-1l-8,0c-0.552,0 -1,0.448 -1,1l0,8c0,0.552 0.448,1 1,1l8,-0c0.552,-0 1,-0.448 1,-1l0,-8Z"/><path
        d="M23,2.25c0,-0.552 -0.448,-1 -1,-1l-8,0c-0.552,0 -1,0.448 -1,1l0,8c0,0.552 0.448,1 1,1l8,-0c0.552,-0 1,-0.448 1,-1l0,-8Z"/></g></g>
  </svg>
