<svg fill="#8c05d9" xmlns="http://www.w3.org/2000/svg" xmlns:xlink="http://www.w3.org/1999/xlink"
     width="50" height="50" viewBox="0 0 32 40" version="1.1" xml:space="preserve" x="0px" y="0px"
><path d="M18,25l-16,0c-0.552,-0 -1,0.448 -1,1c-0,0.552 0.448,1 1,1l16,0l0,2c0,1.105 0.895,2 2,2l2,-0c1.105,-0 2,-0.895 2,-2l0,-2l6,0c0.552,-0 1,-0.448 1,-1c-0,-0.552 -0.448,-1 -1,-1l-6,0l-0,-2c-0,-1.105 -0.895,-2 -2,-2l-2,0c-1.105,0 -2,0.895 -2,2l-0,2Zm2,4l2,0l0,-6l-2,-0l-0,6Zm-14,-14l-4,0c-0.552,-0 -1,0.448 -1,1c-0,0.552 0.448,1 1,1l4,0l0,2c0,1.105 0.895,2 2,2l2,-0c1.105,-0 2,-0.895 2,-2l0,-2l18,0c0.552,-0 1,-0.448 1,-1c-0,-0.552 -0.448,-1 -1,-1l-18,0l-0,-2c-0,-1.105 -0.895,-2 -2,-2l-2,0c-1.105,0 -2,0.895 -2,2l-0,2Zm2,4l2,0l0,-6l-2,-0l-0,6Zm12,-14l-18,0c-0.552,-0 -1,0.448 -1,1c-0,0.552 0.448,1 1,1l18,0l0,2c0,1.105 0.895,2 2,2l2,-0c1.105,-0 2,-0.895 2,-2l0,-2l4,0c0.552,-0 1,-0.448 1,-1c-0,-0.552 -0.448,-1 -1,-1l-4,0l-0,-2c-0,-1.105 -0.895,-2 -2,-2l-2,0c-1.105,0 -2,0.895 -2,2l-0,2Zm2,4l2,0l0,-6l-2,-0l-0,6Z"/>
    </svg>
